{
  "accessors": [
    {
      "bufferView": 2,
      "componentType": 5126,
      "count": 2034,
      "max": [
        2.6263437271118164,
        7.2322678565979,
        3.4920949935913086
      ],
      "min": [
        -3.653714418411255,
        0.18187890946865082,
        -3.4116663932800293
      ],
      "type": "VEC3"
    },
    {
      "bufferView": 2,
      "byteOffset": 24408,
      "componentType": 5126,
      "count": 2034,
      "max": [
        0.9715266823768616,
        0.9930283427238464,
        0.9807291626930237
      ],
      "min": [
        -0.977487325668335,
        -0.9918976426124573,
        -0.9968071579933167
      ],
      "type": "VEC3"
    },
    {
      "bufferView": 3,
      "componentType": 5126,
      "count": 2034,
      "max": [
        0.995401918888092,
        0.996718168258667,
        0.9977860450744629,
        1.0
      ],
      "min": [
        -0.9992075562477112,
        -0.9942561388015747,
        -0.99783855676651,
        1.0
      ],
      "type": "VEC4"
    },
    {
      "bufferView": 1,
      "componentType": 5126,
      "count": 2034,
      "max": [
        0.9944180250167847,
        0.9970859885215759
      ],
      "min": [
        0.006792999804019928,
        0.024929000064730644
      ],
      "type": "VEC2"
    },
    {
      "bufferView": 0,
      "componentType": 5125,
      "count": 2088,
      "type": "SCALAR"
    }
  ],
  "asset": {
    "extras": {
      "author": "miloszgierczak (https://sketchfab.com/miloszgierczak)",
      "license": "SKETCHFAB Standard (https://sketchfab.com/licenses)",
      "source": "https://sketchfab.com/3d-models/rpg-dice-set-pbr-game-ready-model-962812cf911545d5a47edea469cfc54e",
      "title": "RPG dice set - PBR - Game-ready model"
    },
    "generator": "Sketchfab-12.65.0",
    "version": "2.0"
  },
  "bufferViews": [
    {
      "buffer": 0,
      "byteLength": 8352,
      "name": "floatBufferViews",
      "target": 34963
    },
    {
      "buffer": 0,
      "byteLength": 16272,
      "byteOffset": 8352,
      "byteStride": 8,
      "name": "floatBufferViews",
      "target": 34962
    },
    {
      "buffer": 0,
      "byteLength": 48816,
      "byteOffset": 24624,
      "byteStride": 12,
      "name": "floatBufferViews",
      "target": 34962
    },
    {
      "buffer": 0,
      "byteLength": 32544,
      "byteOffset": 73440,
      "byteStride": 16,
      "name": "floatBufferViews",
      "target": 34962
    }
  ],
  "buffers": [
    {
      "byteLength": 105984,
      "uri": "scene.bin"
    }
  ],
  "images": [
    {
      "uri": "textures/Diceset_baseColor.png"
    },
    {
      "uri": "textures/Diceset_metallicRoughness.png"
    },
    {
      "uri": "textures/Diceset_normal.png"
    }
  ],
  "materials": [
    {
      "name": "Diceset",
      "normalTexture": {
        "index": 2
      },
      "pbrMetallicRoughness": {
        "baseColorTexture": {
          "index": 0
        },
        "metallicRoughnessTexture": {
          "index": 1
        }
      }
    }
  ],
  "meshes": [
    {
      "name": "sm_K100_DiceSet_03_Diceset_0",
      "primitives": [
        {
          "attributes": {
            "NORMAL": 1,
            "POSITION": 0,
            "TANGENT": 2,
            "TEXCOORD_0": 3
          },
          "indices": 4,
          "material": 0,
          "mode": 4
        }
      ]
    }
  ],
  "nodes": [
    {
      "children": [
        1
      ],
      "matrix": [
        0.021586846560239792,
        0.0,
        0.0,
        0.0,
        0.0,
        4.793242816045716e-18,
        -0.021586846560239792,
        0.0,
        0.0,
        0.021586846560239792,
        4.793242816045716e-18,
        0.0,
        0.0,
        0.0,
        0.0,
        1.0
      ],
      "name": "Sketchfab_model"
    },
    {
      "children": [
        2
      ],
      "matrix": [
        1.0,
        0.0,
        0.0,
        0.0,
        0.0,
        0.0,
        1.0,
        0.0,
        0.0,
        -1.0,
        0.0,
        0.0,
        0.0,
        0.0,
        0.0,
        1.0
      ],
      "name": "bdf0398a01034e45a361c53e062eec5d.fbx"
    },
    {
      "children": [
        3
      ],
      "name": "RootNode"
    },
    {
      "children": [
        4
      ],
      "name": "sm_K100_DiceSet_03"
    },
    {
      "mesh": 0,
      "name": "sm_K100_DiceSet_03_Diceset_0"
    }
  ],
  "samplers": [
    {
      "magFilter": 9729,
      "minFilter": 9987,
      "wrapS": 10497,
      "wrapT": 10497
    }
  ],
  "scene": 0,
  "scenes": [
    {
      "name": "Sketchfab_Scene",
      "nodes": [
        0
      ]
    }
  ],
  "textures": [
    {
      "sampler": 0,
      "source": 0
    },
    {
      "sampler": 0,
      "source": 1
    },
    {
      "sampler": 0,
      "source": 2
    }
  ]
}
